<svg xmlns="http://www.w3.org/2000/svg" x="0px" y="0px"
width="26" height="26"
viewBox="0 0 172 172"
style=" fill:#000000;"><g fill="none" fill-rule="nonzero" stroke="none" stroke-width="1" stroke-linecap="butt" stroke-linejoin="miter" stroke-miterlimit="10" stroke-dasharray="" stroke-dashoffset="0" font-family="none" font-weight="none" font-size="none" text-anchor="none" style="mix-blend-mode: normal"><path d="M0,172v-172h172v172z" fill="none"></path><g fill="#e74c3c"><path d="M66.15385,0l-66.15385,13.23077l20.05288,20.05288c-11.6286,14.49699 -18.8125,32.6893 -18.8125,52.71635c0,46.79868 37.9351,84.75962 84.75962,84.75962c46.82452,0 84.75962,-37.96094 84.75962,-84.75962c0,-35.09254 -21.29327,-65.27524 -51.68269,-78.14423v20.46635c20.02704,11.4994 33.49038,32.94772 33.49038,57.67788c0,36.79808 -29.76923,66.56731 -66.56731,66.56731c-36.79808,0 -66.56731,-29.76923 -66.56731,-66.56731c0,-15.03966 5.01322,-28.76142 13.4375,-39.89904l20.05288,20.05288z"></path></g></g></svg>