<?xml version="1.0" encoding="utf-8"?>
<!-- Generator: Adobe Illustrator 16.0.0, SVG Export Plug-In . SVG Version: 6.00 Build 0)  -->
<!DOCTYPE svg PUBLIC "-//W3C//DTD SVG 1.1//EN" "http://www.w3.org/Graphics/SVG/1.1/DTD/svg11.dtd">
<svg version="1.1" xmlns="http://www.w3.org/2000/svg" xmlns:xlink="http://www.w3.org/1999/xlink" x="0px" y="0px"
	 width="506.719px" height="132.115px" viewBox="0 0 506.719 132.115" enable-background="new 0 0 506.719 132.115"
	 xml:space="preserve">
<g id="Layer_3">
	<radialGradient id="SVGID_1_" cx="283.4692" cy="181.6011" r="535.5709" gradientUnits="userSpaceOnUse">
		<stop  offset="0" style="stop-color:#FFFFFF"/>
		<stop  offset="0.5942" style="stop-color:#FDFDFD"/>
		<stop  offset="0.808" style="stop-color:#F6F7F7"/>
		<stop  offset="0.9601" style="stop-color:#EBEBEC"/>
		<stop  offset="1" style="stop-color:#E6E7E8"/>
	</radialGradient>
	<rect x="-116.531" y="-216.989" fill="url(#SVGID_1_)" width="800" height="800"/>
</g>
<g id="Layer_5">
	<g>
		<g opacity="0.3">
			<ellipse opacity="0" fill="#A6A8AB" cx="59.897" cy="124.258" rx="63.304" ry="7.857"/>
			<ellipse opacity="0.0099" fill="#A5A7AA" cx="59.897" cy="124.257" rx="62.761" ry="7.791"/>
			<ellipse opacity="0.0198" fill="#A3A5A8" cx="59.897" cy="124.257" rx="62.219" ry="7.723"/>
			<ellipse opacity="0.0297" fill="#A2A4A7" cx="59.897" cy="124.258" rx="61.676" ry="7.655"/>
			<ellipse opacity="0.0396" fill="#A1A3A5" cx="59.897" cy="124.258" rx="61.133" ry="7.587"/>
			<ellipse opacity="0.0495" fill="#A0A1A4" cx="59.897" cy="124.258" rx="60.59" ry="7.521"/>
			<ellipse opacity="0.0594" fill="#9EA0A3" cx="59.897" cy="124.258" rx="60.047" ry="7.453"/>
			<ellipse opacity="0.0693" fill="#9D9FA1" cx="59.897" cy="124.258" rx="59.505" ry="7.386"/>
			<ellipse opacity="0.0792" fill="#9C9DA0" cx="59.897" cy="124.258" rx="58.962" ry="7.318"/>
			<ellipse opacity="0.0891" fill="#9A9C9F" cx="59.897" cy="124.258" rx="58.419" ry="7.251"/>
			<ellipse opacity="0.099" fill="#999A9D" cx="59.897" cy="124.258" rx="57.876" ry="7.184"/>
			<ellipse opacity="0.1089" fill="#98999C" cx="59.897" cy="124.258" rx="57.333" ry="7.116"/>
			<ellipse opacity="0.1188" fill="#96989A" cx="59.897" cy="124.258" rx="56.791" ry="7.049"/>
			<ellipse opacity="0.1287" fill="#959699" cx="59.897" cy="124.258" rx="56.248" ry="6.981"/>
			<ellipse opacity="0.1386" fill="#949598" cx="59.897" cy="124.258" rx="55.705" ry="6.914"/>
			<ellipse opacity="0.1485" fill="#939496" cx="59.897" cy="124.258" rx="55.162" ry="6.847"/>
			<ellipse opacity="0.1584" fill="#919295" cx="59.897" cy="124.258" rx="54.619" ry="6.779"/>
			<ellipse opacity="0.1683" fill="#909194" cx="59.897" cy="124.258" rx="54.076" ry="6.712"/>
			<ellipse opacity="0.1782" fill="#8F9092" cx="59.897" cy="124.258" rx="53.533" ry="6.645"/>
			<ellipse opacity="0.1881" fill="#8D8E91" cx="59.897" cy="124.258" rx="52.99" ry="6.577"/>
			<ellipse opacity="0.198" fill="#8C8D8F" cx="59.897" cy="124.258" rx="52.448" ry="6.51"/>
			<ellipse opacity="0.2079" fill="#8B8C8E" cx="59.897" cy="124.258" rx="51.905" ry="6.442"/>
			<ellipse opacity="0.2178" fill="#898A8D" cx="59.897" cy="124.258" rx="51.362" ry="6.375"/>
			<ellipse opacity="0.2277" fill="#88898B" cx="59.897" cy="124.258" rx="50.819" ry="6.308"/>
			<ellipse opacity="0.2376" fill="#87878A" cx="59.897" cy="124.258" rx="50.276" ry="6.24"/>
			<ellipse opacity="0.2475" fill="#868689" cx="59.897" cy="124.258" rx="49.734" ry="6.173"/>
			<ellipse opacity="0.2574" fill="#848587" cx="59.897" cy="124.258" rx="49.191" ry="6.105"/>
			<ellipse opacity="0.2673" fill="#838386" cx="59.897" cy="124.258" rx="48.648" ry="6.038"/>
			<ellipse opacity="0.2772" fill="#828284" cx="59.897" cy="124.258" rx="48.105" ry="5.971"/>
			<ellipse opacity="0.2871" fill="#808183" cx="59.897" cy="124.258" rx="47.563" ry="5.903"/>
			<ellipse opacity="0.297" fill="#7F7F82" cx="59.897" cy="124.258" rx="47.02" ry="5.836"/>
			<ellipse opacity="0.3069" fill="#7E7E80" cx="59.897" cy="124.258" rx="46.477" ry="5.769"/>
			<ellipse opacity="0.3168" fill="#7C7D7F" cx="59.897" cy="124.258" rx="45.934" ry="5.701"/>
			<ellipse opacity="0.3267" fill="#7B7B7E" cx="59.897" cy="124.258" rx="45.391" ry="5.634"/>
			<ellipse opacity="0.3366" fill="#7A7A7C" cx="59.897" cy="124.258" rx="44.848" ry="5.566"/>
			<ellipse opacity="0.3465" fill="#79797B" cx="59.897" cy="124.258" rx="44.306" ry="5.499"/>
			<ellipse opacity="0.3564" fill="#777779" cx="59.897" cy="124.258" rx="43.763" ry="5.432"/>
			<ellipse opacity="0.3663" fill="#767678" cx="59.897" cy="124.258" rx="43.22" ry="5.365"/>
			<ellipse opacity="0.3762" fill="#757477" cx="59.897" cy="124.258" rx="42.677" ry="5.297"/>
			<ellipse opacity="0.3861" fill="#737375" cx="59.897" cy="124.258" rx="42.134" ry="5.229"/>
			<ellipse opacity="0.396" fill="#727274" cx="59.897" cy="124.258" rx="41.591" ry="5.162"/>
			<ellipse opacity="0.4059" fill="#717073" cx="59.897" cy="124.258" rx="41.049" ry="5.095"/>
			<ellipse opacity="0.4158" fill="#706F71" cx="59.897" cy="124.258" rx="40.506" ry="5.027"/>
			<ellipse opacity="0.4257" fill="#6E6E70" cx="59.897" cy="124.258" rx="39.963" ry="4.96"/>
			<ellipse opacity="0.4356" fill="#6D6C6E" cx="59.897" cy="124.258" rx="39.42" ry="4.893"/>
			<ellipse opacity="0.4455" fill="#6C6B6D" cx="59.897" cy="124.258" rx="38.877" ry="4.825"/>
			<ellipse opacity="0.4554" fill="#6A6A6C" cx="59.897" cy="124.258" rx="38.334" ry="4.758"/>
			<ellipse opacity="0.4653" fill="#69686A" cx="59.897" cy="124.258" rx="37.792" ry="4.69"/>
			<ellipse opacity="0.4752" fill="#686769" cx="59.897" cy="124.258" rx="37.249" ry="4.623"/>
			<ellipse opacity="0.4851" fill="#666668" cx="59.897" cy="124.258" rx="36.706" ry="4.556"/>
			<ellipse opacity="0.495" fill="#656466" cx="59.897" cy="124.258" rx="36.163" ry="4.489"/>
			<ellipse opacity="0.505" fill="#646365" cx="59.897" cy="124.258" rx="35.62" ry="4.421"/>
			<ellipse opacity="0.5149" fill="#636163" cx="59.897" cy="124.258" rx="35.078" ry="4.354"/>
			<ellipse opacity="0.5248" fill="#616062" cx="59.897" cy="124.258" rx="34.535" ry="4.286"/>
			<ellipse opacity="0.5347" fill="#605F61" cx="59.897" cy="124.258" rx="33.992" ry="4.219"/>
			<ellipse opacity="0.5446" fill="#5F5D5F" cx="59.897" cy="124.258" rx="33.449" ry="4.152"/>
			<ellipse opacity="0.5545" fill="#5D5C5E" cx="59.897" cy="124.258" rx="32.906" ry="4.084"/>
			<ellipse opacity="0.5644" fill="#5C5B5D" cx="59.897" cy="124.258" rx="32.363" ry="4.017"/>
			<ellipse opacity="0.5743" fill="#5B595B" cx="59.897" cy="124.258" rx="31.82" ry="3.949"/>
			<ellipse opacity="0.5842" fill="#59585A" cx="59.897" cy="124.258" rx="31.278" ry="3.882"/>
			<ellipse opacity="0.5941" fill="#585758" cx="59.897" cy="124.258" rx="30.735" ry="3.814"/>
			<ellipse opacity="0.604" fill="#575557" cx="59.897" cy="124.258" rx="30.192" ry="3.748"/>
			<ellipse opacity="0.6139" fill="#565456" cx="59.897" cy="124.258" rx="29.649" ry="3.68"/>
			<ellipse opacity="0.6238" fill="#545354" cx="59.897" cy="124.258" rx="29.106" ry="3.612"/>
			<ellipse opacity="0.6337" fill="#535153" cx="59.897" cy="124.258" rx="28.563" ry="3.545"/>
			<ellipse opacity="0.6436" fill="#525052" cx="59.897" cy="124.258" rx="28.021" ry="3.478"/>
			<ellipse opacity="0.6535" fill="#504E50" cx="59.897" cy="124.258" rx="27.478" ry="3.41"/>
			<ellipse opacity="0.6634" fill="#4F4D4F" cx="59.897" cy="124.258" rx="26.935" ry="3.343"/>
			<ellipse opacity="0.6733" fill="#4E4C4D" cx="59.897" cy="124.258" rx="26.392" ry="3.276"/>
			<ellipse opacity="0.6832" fill="#4D4A4C" cx="59.897" cy="124.258" rx="25.849" ry="3.208"/>
			<ellipse opacity="0.6931" fill="#4B494B" cx="59.897" cy="124.258" rx="25.307" ry="3.141"/>
			<ellipse opacity="0.703" fill="#4A4849" cx="59.897" cy="124.258" rx="24.764" ry="3.073"/>
			<ellipse opacity="0.7129" fill="#494648" cx="59.897" cy="124.258" rx="24.221" ry="3.006"/>
			<ellipse opacity="0.7228" fill="#474547" cx="59.897" cy="124.258" rx="23.678" ry="2.939"/>
			<ellipse opacity="0.7327" fill="#464445" cx="59.897" cy="124.258" rx="23.135" ry="2.872"/>
			<ellipse opacity="0.7426" fill="#454244" cx="59.897" cy="124.258" rx="22.593" ry="2.804"/>
			<ellipse opacity="0.7525" fill="#434142" cx="59.897" cy="124.258" rx="22.049" ry="2.737"/>
			<ellipse opacity="0.7624" fill="#424041" cx="59.897" cy="124.258" rx="21.507" ry="2.669"/>
			<ellipse opacity="0.7723" fill="#413E40" cx="59.897" cy="124.258" rx="20.964" ry="2.602"/>
			<ellipse opacity="0.7822" fill="#403D3E" cx="59.897" cy="124.258" rx="20.421" ry="2.535"/>
			<ellipse opacity="0.7921" fill="#3E3B3D" cx="59.897" cy="124.258" rx="19.878" ry="2.467"/>
			<ellipse opacity="0.802" fill="#3D3A3C" cx="59.897" cy="124.258" rx="19.335" ry="2.4"/>
			<ellipse opacity="0.8119" fill="#3C393A" cx="59.897" cy="124.258" rx="18.792" ry="2.333"/>
			<ellipse opacity="0.8218" fill="#3A3739" cx="59.897" cy="124.258" rx="18.25" ry="2.265"/>
			<ellipse opacity="0.8317" fill="#393637" cx="59.897" cy="124.258" rx="17.707" ry="2.197"/>
			<ellipse opacity="0.8416" fill="#383536" cx="59.897" cy="124.258" rx="17.164" ry="2.13"/>
			<ellipse opacity="0.8515" fill="#363335" cx="59.897" cy="124.258" rx="16.621" ry="2.063"/>
			<ellipse opacity="0.8614" fill="#353233" cx="59.897" cy="124.258" rx="16.078" ry="1.996"/>
			<ellipse opacity="0.8713" fill="#343132" cx="59.897" cy="124.258" rx="15.535" ry="1.928"/>
			<ellipse opacity="0.8812" fill="#332F31" cx="59.897" cy="124.258" rx="14.993" ry="1.861"/>
			<ellipse opacity="0.8911" fill="#312E2F" cx="59.897" cy="124.258" rx="14.45" ry="1.793"/>
			<ellipse opacity="0.901" fill="#302D2E" cx="59.897" cy="124.258" rx="13.907" ry="1.726"/>
			<ellipse opacity="0.9109" fill="#2F2B2C" cx="59.897" cy="124.258" rx="13.364" ry="1.659"/>
			<ellipse opacity="0.9208" fill="#2D2A2B" cx="59.897" cy="124.258" rx="12.821" ry="1.591"/>
			<ellipse opacity="0.9307" fill="#2C282A" cx="59.897" cy="124.258" rx="12.279" ry="1.524"/>
			<ellipse opacity="0.9406" fill="#2B2728" cx="59.897" cy="124.258" rx="11.736" ry="1.457"/>
			<ellipse opacity="0.9505" fill="#292627" cx="59.897" cy="124.258" rx="11.193" ry="1.389"/>
			<ellipse opacity="0.9604" fill="#282426" cx="59.897" cy="124.258" rx="10.65" ry="1.322"/>
			<ellipse opacity="0.9703" fill="#272324" cx="59.897" cy="124.258" rx="10.107" ry="1.254"/>
			<ellipse opacity="0.9802" fill="#262223" cx="59.897" cy="124.258" rx="9.564" ry="1.187"/>
			<ellipse opacity="0.9901" fill="#242021" cx="59.897" cy="124.258" rx="9.022" ry="1.12"/>
			<ellipse fill="#231F20" cx="59.897" cy="124.258" rx="8.479" ry="1.052"/>
		</g>
		<g>
			<g>
				<linearGradient id="SVGID_2_" gradientUnits="userSpaceOnUse" x1="207.7231" y1="-61.9023" x2="43.7305" y2="65.8843">
					<stop  offset="0" style="stop-color:#EE4023"/>
					<stop  offset="0.5222" style="stop-color:#EC1B2E"/>
					<stop  offset="1" style="stop-color:#9C1521"/>
				</linearGradient>
				<path fill="url(#SVGID_2_)" d="M33.023,16.541h0.002c2.75,0,5.389,1.093,7.332,3.042l29.218,30.399
					c0.822,0.908,2.248,0.908,3.069,0l27.563-28.685C89.915,8.329,74.025,0,56.184,0C25.153,0,0,25.154,0,56.183
					c0,31.028,25.153,56.182,56.184,56.182c14.58,0,27.864-5.557,37.85-14.666v-38.94c0-0.923-1.117-1.386-1.77-0.732L74.225,78.754
					c-1.65,1.898-4.598,1.898-6.25,0L49.937,58.027c-0.653-0.654-1.77-0.191-1.77,0.732v40.186
					c-11.253,0-20.375-7.495-20.375-18.749V21.771C27.792,18.883,30.135,16.541,33.023,16.541z"/>
				<linearGradient id="SVGID_3_" gradientUnits="userSpaceOnUse" x1="241.6284" y1="-18.3765" x2="77.644" y2="109.4038">
					<stop  offset="0" style="stop-color:#EE4023"/>
					<stop  offset="0.5222" style="stop-color:#EC1B2E"/>
					<stop  offset="1" style="stop-color:#9C1521"/>
				</linearGradient>
				<path fill="url(#SVGID_3_)" d="M122.525,69.794h-13.288c-1.749,0-3.168,1.419-3.168,3.168V86.25c0,1.75,1.419,3.168,3.168,3.168
					h13.288c1.751,0,3.168-1.419,3.168-3.168V72.963C125.694,71.213,124.276,69.794,122.525,69.794z"/>
				<linearGradient id="SVGID_4_" gradientUnits="userSpaceOnUse" x1="226.0171" y1="-38.7466" x2="62.0225" y2="89.0416">
					<stop  offset="0" style="stop-color:#EE4023"/>
					<stop  offset="0.5222" style="stop-color:#EC1B2E"/>
					<stop  offset="1" style="stop-color:#9C1521"/>
				</linearGradient>
				<path fill="url(#SVGID_4_)" d="M112.441,53.636h9.147c1.586,0,2.874-1.287,2.874-2.874v-9.146c0-1.586-1.287-2.874-2.874-2.874
					h-9.147c-1.587,0-2.873,1.288-2.873,2.874v9.146C109.568,52.349,110.854,53.636,112.441,53.636z"/>
				<linearGradient id="SVGID_5_" gradientUnits="userSpaceOnUse" x1="238.0176" y1="-21.8882" x2="74.0264" y2="105.8973">
					<stop  offset="0" style="stop-color:#EE4023"/>
					<stop  offset="0.5222" style="stop-color:#EC1B2E"/>
					<stop  offset="1" style="stop-color:#9C1521"/>
				</linearGradient>
				<path fill="url(#SVGID_5_)" d="M135.25,55.336h-7.532c-1.118,0-2.024,0.904-2.024,2.022v7.533c0,1.117,0.907,2.022,2.024,2.022
					h7.532c1.117,0,2.023-0.906,2.023-2.022v-7.533C137.273,56.24,136.367,55.336,135.25,55.336z"/>
				<linearGradient id="SVGID_6_" gradientUnits="userSpaceOnUse" x1="223.1216" y1="-42.1313" x2="59.135" y2="85.6506">
					<stop  offset="0" style="stop-color:#EE4023"/>
					<stop  offset="0.5222" style="stop-color:#EC1B2E"/>
					<stop  offset="1" style="stop-color:#9C1521"/>
				</linearGradient>
				<path fill="url(#SVGID_6_)" d="M125.923,35.768h5.38c0.865,0,1.565-0.702,1.565-1.566v-5.381c0-0.864-0.7-1.566-1.565-1.566
					h-5.38c-0.866,0-1.567,0.702-1.567,1.566v5.381C124.356,35.066,125.057,35.768,125.923,35.768z"/>
			</g>
			<g>
				<linearGradient id="SVGID_7_" gradientUnits="userSpaceOnUse" x1="138.8481" y1="-6.4492" x2="62.1775" y2="120.8621">
					<stop  offset="0" style="stop-color:#EE4023"/>
					<stop  offset="0.5222" style="stop-color:#EC1B2E"/>
					<stop  offset="1" style="stop-color:#9C1521"/>
				</linearGradient>
				<path fill="url(#SVGID_7_)" d="M71.1,82.778c-0.19,0-0.372-0.044-0.56-0.06c2.948,7.303,4.881,15.089,5.61,23.182
					c5.538-2.223,10.709-5.366,15.283-9.365V62.942L76.187,80.462C74.905,81.935,73.051,82.778,71.1,82.778z"/>
				<linearGradient id="SVGID_8_" gradientUnits="userSpaceOnUse" x1="90.0649" y1="-35.8301" x2="13.3932" y2="91.4829">
					<stop  offset="0" style="stop-color:#EE4023"/>
					<stop  offset="0.5222" style="stop-color:#EC1B2E"/>
					<stop  offset="1" style="stop-color:#9C1521"/>
				</linearGradient>
				<path fill="url(#SVGID_8_)" d="M56.184,2.601c-20.657,0-38.608,11.756-47.549,28.921c5.736,1.101,11.281,2.79,16.558,5.031
					V21.772c0-4.318,3.513-7.833,7.833-7.833c3.416,0,6.759,1.387,9.206,3.843l28.877,30.046l25.617-26.66
					C86.516,9.339,71.866,2.601,56.184,2.601z"/>
				<linearGradient id="SVGID_9_" gradientUnits="userSpaceOnUse" x1="160.0283" y1="6.3052" x2="83.3584" y2="133.6153">
					<stop  offset="0" style="stop-color:#EE4023"/>
					<stop  offset="0.5222" style="stop-color:#EC1B2E"/>
					<stop  offset="1" style="stop-color:#9C1521"/>
				</linearGradient>
				<path fill="url(#SVGID_9_)" d="M122.525,71.497h-13.288c-0.806,0-1.463,0.66-1.463,1.468V86.25c0,0.806,0.657,1.466,1.463,1.466
					h13.288c0.808,0,1.465-0.66,1.465-1.466V72.964C123.991,72.157,123.333,71.497,122.525,71.497z"/>
				<linearGradient id="SVGID_10_" gradientUnits="userSpaceOnUse" x1="145.8931" y1="-1.7588" x2="69.2205" y2="125.5557">
					<stop  offset="0" style="stop-color:#EE4023"/>
					<stop  offset="0.5222" style="stop-color:#EC1B2E"/>
					<stop  offset="1" style="stop-color:#9C1521"/>
				</linearGradient>
				<path fill="url(#SVGID_10_)" d="M112.441,51.934h9.147c0.644,0,1.17-0.527,1.17-1.17v-9.146c0-0.644-0.526-1.171-1.17-1.171
					h-9.147c-0.645,0-1.168,0.527-1.168,1.171v9.146C111.272,51.407,111.796,51.934,112.441,51.934z"/>
				<linearGradient id="SVGID_11_" gradientUnits="userSpaceOnUse" x1="162.8071" y1="9.1128" x2="86.1384" y2="136.421">
					<stop  offset="0" style="stop-color:#EE4023"/>
					<stop  offset="0.5222" style="stop-color:#EC1B2E"/>
					<stop  offset="1" style="stop-color:#9C1521"/>
				</linearGradient>
				<path fill="url(#SVGID_11_)" d="M135.25,57.037h-7.532c-0.176,0-0.32,0.144-0.32,0.322v7.531c0,0.178,0.144,0.322,0.32,0.322
					h7.532c0.176,0,0.318-0.145,0.318-0.322v-7.531C135.568,57.181,135.427,57.037,135.25,57.037z"/>
				<linearGradient id="SVGID_12_" gradientUnits="userSpaceOnUse" x1="148.1768" y1="-1.1514" x2="71.0025" y2="126.9962">
					<stop  offset="0" style="stop-color:#EE4023"/>
					<stop  offset="0.5222" style="stop-color:#EC1B2E"/>
					<stop  offset="1" style="stop-color:#9C1521"/>
				</linearGradient>
				<rect x="125.923" y="28.821" fill="url(#SVGID_12_)" width="5.246" height="5.243"/>
			</g>
		</g>
	</g>
	<g>
		<path fill="#323232" d="M186.469,16.253c5.167,0,8.46,2.798,9.88,8.392l9.413,37.077l8.818-37.159
			c1.306-5.54,4.529-8.31,9.669-8.31c3.152,0,5.538,0.952,7.157,2.854c1.334,1.562,2.271,4.019,2.811,7.369l6.901,42.678
			c0.227,1.392,0.34,2.513,0.34,3.365c0,2.243-0.639,4.04-1.917,5.388c-1.278,1.349-3.024,2.023-5.239,2.023
			c-4.004,0-6.333-2.754-6.985-8.263l-4.472-37.055c-2.811,12.125-4.529,19.422-5.154,21.892
			c-2.953,12.011-5.068,18.982-6.346,20.913c-1.107,1.675-3.081,2.513-5.92,2.513c-4.401,0-7.17-2.371-8.305-7.113l-9.158-38.205
			l-4.855,36.161c-0.824,6.105-3.294,9.158-7.411,9.158c-2.158,0-3.862-0.71-5.111-2.13c-1.193-1.334-1.789-3.095-1.789-5.281
			c0-0.937,0.17-2.357,0.511-4.259l7.58-42.294c0.567-3.18,1.49-5.522,2.768-7.028C181.188,17.148,183.46,16.253,186.469,16.253z"/>
		<path fill="#323232" d="M252.491,60.848c-4.515,0-6.772-2.002-6.772-6.006c0-3.975,2.285-5.963,6.857-5.963h17.718
			c4.543,0,6.815,2.017,6.815,6.048c0,3.947-2.3,5.92-6.9,5.92H252.491z"/>
		<path fill="#323232" d="M287.502,45.301c-5.452,0-8.178-1.973-8.178-5.92c0-3.748,2.726-5.792,8.178-6.133
			c0-0.426,0-1.178,0-2.257c0-1.079,0-1.931,0-2.556c0-7.467,2.313-11.202,6.941-11.202c4.572,0,6.857,3.734,6.857,11.202
			c0,0.625,0,1.484,0,2.577c0,1.093,0,1.853,0,2.278c6.561,0,9.84,2.031,9.84,6.091c0,3.947-3.279,5.92-9.84,5.92v24.363
			c0,6.673-2.285,10.009-6.857,10.009c-4.629,0-6.941-3.336-6.941-10.009V45.301z"/>
		<path fill="#323232" d="M313.867,69.664V42.021c0-6.644,2.285-9.966,6.857-9.966c2.754,0,4.94,1.463,6.56,4.387
			c2.867-3.094,5.977-4.643,9.327-4.643c1.902,0,3.542,0.667,4.92,2.002c1.377,1.335,2.065,2.939,2.065,4.813
			c0,1.959-1.107,3.592-3.322,4.898c-0.568,0.341-2.811,1.307-6.729,2.896c-2.698,1.107-4.387,2.257-5.068,3.45
			c-0.568,1.022-0.852,2.854-0.852,5.494v14.311c0,6.673-2.3,10.009-6.9,10.009C316.152,79.673,313.867,76.337,313.867,69.664z"/>
		<path fill="#323232" d="M376.691,74.903c-2.84,3.492-6.674,5.239-11.5,5.239c-6.304,0-11.443-2.527-15.419-7.582
			c-3.635-4.657-5.451-10.222-5.451-16.696c0-6.502,1.916-12.096,5.749-16.781c4.089-5.026,9.3-7.539,15.632-7.539
			c4.628,0,8.291,1.633,10.989,4.898c1.59-2.924,3.775-4.387,6.559-4.387c4.515,0,6.772,3.322,6.772,9.966v27.643
			c0,6.673-2.258,10.009-6.772,10.009C380.296,79.673,378.11,78.083,376.691,74.903z M358.546,55.694
			c0,3.039,0.695,5.594,2.087,7.667c1.618,2.385,3.89,3.578,6.814,3.578c2.868,0,5.111-1.207,6.729-3.621
			c1.392-2.101,2.088-4.643,2.088-7.624c0-2.924-0.725-5.423-2.173-7.496c-1.618-2.328-3.833-3.493-6.645-3.493
			c-2.868,0-5.11,1.15-6.729,3.45C359.27,50.199,358.546,52.712,358.546,55.694z"/>
		<path fill="#323232" d="M394.452,38.87c0-1.93,0.624-3.549,1.874-4.855c1.249-1.306,2.825-1.959,4.728-1.959
			c3.294,0,5.65,2.243,7.07,6.729l7.497,23.895l7.453-24.789c1.136-3.776,3.279-5.665,6.432-5.665c1.987,0,3.563,0.625,4.728,1.874
			c1.164,1.25,1.746,2.868,1.746,4.855c0,1.165-0.355,2.669-1.064,4.515L423.33,73.498c-0.881,2.272-1.804,3.891-2.769,4.855
			c-1.278,1.249-2.981,1.874-5.111,1.874c-2.243,0-4.032-0.681-5.366-2.044c-0.966-0.994-1.932-2.697-2.896-5.111l-11.969-30.454
			C394.708,41.313,394.452,40.063,394.452,38.87z"/>
		<path fill="#323232" d="M451.313,59.698c0.652,5.48,4.117,8.22,10.393,8.22c2.271,0,5.104-0.746,8.497-2.236
			c3.393-1.491,5.388-2.236,5.984-2.236c1.59,0,2.903,0.49,3.939,1.469c1.036,0.98,1.555,2.265,1.555,3.854
			c0,2.925-2.044,5.58-6.133,7.965c-4.089,2.385-8.944,3.578-14.567,3.578c-6.899,0-12.593-2.328-17.079-6.985
			c-4.487-4.657-6.729-10.449-6.729-17.378c0-6.871,2.115-12.65,6.346-17.335c4.401-4.827,9.995-7.241,16.782-7.241
			c6.389,0,11.72,2.187,15.993,6.559c4.273,4.373,6.41,9.769,6.41,16.186c0,2.3-0.625,3.862-1.874,4.685
			c-0.938,0.596-2.584,0.895-4.94,0.895H451.313z M451.143,50.71h18.144c-0.17-2.356-1.107-4.309-2.811-5.856
			c-1.704-1.547-3.734-2.321-6.091-2.321c-2.414,0-4.444,0.76-6.091,2.279C452.647,46.331,451.596,48.297,451.143,50.71z"/>
		<path fill="#323232" d="M489.177,22.557c0-6.701,2.301-10.052,6.9-10.052c4.515,0,6.772,3.351,6.772,10.052v47.107
			c0,6.673-2.258,10.009-6.772,10.009c-4.6,0-6.9-3.336-6.9-10.009V22.557z"/>
	</g>
	<g>
		<path fill="#E40000" d="M178.2,116.313h-4.566l-5.79-17.234h4.543l3.49,12.084h0.058l3.513-12.084h4.566L178.2,116.313z"/>
		<path fill="#E40000" d="M192.446,116.313v-1.375H192.4c-0.32,0.659-0.786,1.133-1.396,1.421c-0.526,0.25-1.186,0.375-1.979,0.375
			c-1.655,0-2.929-0.542-3.822-1.625c-0.488-0.606-0.813-1.235-0.973-1.887c-0.13-0.492-0.195-1.193-0.195-2.103v-7.73h3.891v7.15
			c0,0.834,0.13,1.448,0.389,1.842c0.32,0.493,0.885,0.739,1.694,0.739c1.487,0,2.231-0.875,2.231-2.626v-7.105h3.891v12.925
			H192.446z"/>
		<path fill="#E40000" d="M211.831,111.027h-9.75c0.244,1.629,1.259,2.444,3.044,2.444c0.93,0,1.72-0.402,2.369-1.205h3.982
			c-0.58,1.341-1.412,2.41-2.495,3.206c-1.152,0.841-2.438,1.262-3.856,1.262c-1.9,0-3.521-0.67-4.863-2.012
			c-1.351-1.334-2.025-2.944-2.025-4.832c0-1.895,0.66-3.52,1.979-4.877c1.335-1.379,2.948-2.069,4.84-2.069
			c1.968,0,3.612,0.69,4.932,2.069c1.29,1.357,1.934,3.02,1.934,4.991C211.922,110.375,211.892,110.717,211.831,111.027z
			 M208.032,108.424c-0.32-1.478-1.305-2.217-2.952-2.217c-1.648,0-2.632,0.739-2.952,2.217H208.032z"/>
		<path fill="#E40000" d="M235.655,109.379c-0.382,0.879-0.82,1.637-1.316,2.274l2.369,2.421l-2.644,2.592l-2.048-2.103
			c-0.801,0.689-1.594,1.205-2.38,1.546c-0.877,0.371-1.808,0.557-2.792,0.557c-1.526,0-2.854-0.447-3.982-1.341
			c-1.205-0.962-1.808-2.187-1.808-3.672c0-1.039,0.316-1.963,0.95-2.774c0.274-0.349,0.618-0.693,1.03-1.035
			c0.328-0.28,0.74-0.583,1.236-0.909c-1.099-1.114-1.648-2.357-1.648-3.729c0-1.288,0.48-2.356,1.442-3.206
			c0.931-0.826,2.052-1.239,3.364-1.239c1.259,0,2.323,0.391,3.192,1.171c0.9,0.811,1.351,1.834,1.351,3.069
			c0,0.841-0.222,1.603-0.664,2.285c-0.381,0.576-0.957,1.133-1.728,1.671l2.048,2.046l1.258-2.819h4.108L235.655,109.379z
			 M226.649,109.254c-0.419,0.333-0.721,0.618-0.904,0.853c-0.282,0.364-0.423,0.75-0.423,1.16c0,1.129,0.664,1.694,1.991,1.694
			c0.87,0,1.571-0.311,2.105-0.932L226.649,109.254z M227.451,101.876c-0.702,0-1.053,0.382-1.053,1.148
			c0,0.333,0.103,0.671,0.309,1.012c0.145,0.25,0.37,0.531,0.675,0.841c0.168-0.167,0.301-0.303,0.4-0.409
			c0.138-0.152,0.252-0.296,0.343-0.432c0.221-0.349,0.332-0.705,0.332-1.068C228.458,102.24,228.122,101.876,227.451,101.876z"/>
		<path fill="#E40000" d="M259.067,107.355c-0.336,0.864-0.793,1.554-1.373,2.069c-0.694,0.599-1.484,1.008-2.369,1.228
			c-0.679,0.174-1.575,0.261-2.689,0.261h-1.922v5.4h-4.245V99.08h5.675c0.549,0,1.011,0.012,1.385,0.034
			c0.519,0.03,0.992,0.083,1.419,0.159c1.053,0.182,1.899,0.538,2.541,1.069c1.357,1.144,2.037,2.664,2.037,4.558
			C259.525,105.741,259.372,106.56,259.067,107.355z M254.364,103.286c-0.442-0.227-1.114-0.341-2.014-0.341h-1.636v4.104h1.796
			c0.854,0,1.499-0.129,1.934-0.387c0.557-0.326,0.835-0.887,0.835-1.683C255.28,104.169,254.975,103.604,254.364,103.286z"/>
		<path fill="#E40000" d="M266.711,120.622h-4.12l2.06-4.957l-4.829-12.277h4.142l2.609,7.503h0.045l2.483-7.503h4.119
			L266.711,120.622z"/>
		<path fill="#E40000" d="M279.31,106.321v9.992h-3.891v-9.992h-1.922v-2.933h1.922V99.08h3.891v4.309h1.876v2.933H279.31z"/>
		<path fill="#E40000" d="M291.016,116.313v-7.025c0-0.811-0.137-1.436-0.412-1.875c-0.343-0.553-0.903-0.83-1.682-0.83
			c-0.786,0-1.358,0.243-1.717,0.728c-0.305,0.417-0.457,1.027-0.457,1.83v7.173h-3.891V99.08h3.891v5.502h0.045
			c0.32-0.569,0.802-0.993,1.442-1.273c0.549-0.243,1.186-0.364,1.911-0.364c1.54,0,2.719,0.474,3.535,1.421
			c0.558,0.637,0.916,1.383,1.076,2.24c0.068,0.341,0.11,0.743,0.126,1.205c0.007,0.182,0.015,0.395,0.022,0.637v7.867H291.016z"/>
		<path fill="#E40000" d="M309.061,114.756c-1.335,1.304-3.002,1.956-5,1.956c-1.999,0-3.662-0.652-4.989-1.956
			c-1.343-1.303-2.014-2.94-2.014-4.911c0-1.978,0.671-3.619,2.014-4.922c1.327-1.303,2.99-1.955,4.989-1.955
			c1.998,0,3.665,0.652,5,1.955c1.343,1.304,2.015,2.944,2.015,4.922C311.076,111.816,310.404,113.453,309.061,114.756z
			 M306.303,107.56c-0.603-0.651-1.35-0.978-2.242-0.978c-0.886,0-1.629,0.326-2.231,0.978c-0.588,0.629-0.882,1.391-0.882,2.285
			c0,0.887,0.294,1.648,0.882,2.285c0.603,0.645,1.346,0.966,2.231,0.966c0.893,0,1.64-0.322,2.242-0.966
			c0.588-0.636,0.882-1.398,0.882-2.285C307.185,108.951,306.891,108.189,306.303,107.56z"/>
		<path fill="#E40000" d="M321.419,116.313v-7.06c0-0.841-0.122-1.466-0.366-1.875c-0.313-0.53-0.869-0.796-1.671-0.796
			c-0.847,0-1.445,0.258-1.796,0.773c-0.29,0.425-0.435,1.069-0.435,1.933v7.025h-3.891v-12.925h3.627v1.375h0.058
			c0.747-1.212,1.926-1.819,3.535-1.819c1.32,0,2.43,0.375,3.33,1.125c0.564,0.47,0.969,1.103,1.213,1.898
			c0.19,0.622,0.286,1.375,0.286,2.262v8.083H321.419z"/>
		<path fill="#E40000" d="M341.983,102.945v13.369h-4.429v-13.369h-3.422V99.08h11.249v3.865H341.983z"/>
		<path fill="#E40000" d="M353.505,106.833c-0.999,0.03-1.724,0.182-2.174,0.455c-0.595,0.364-0.893,1.004-0.893,1.921v7.105h-3.891
			v-12.925h3.65v1.375h0.058c0.617-1.212,1.7-1.819,3.249-1.819V106.833z"/>
		<path fill="#E40000" d="M364.845,116.313v-1.398h-0.046c-0.327,0.622-0.873,1.095-1.636,1.421c-0.656,0.28-1.377,0.42-2.163,0.42
			c-1.96,0-3.551-0.671-4.771-2.012c-1.175-1.303-1.762-2.937-1.762-4.899c0-1.933,0.599-3.554,1.796-4.866
			c1.243-1.356,2.822-2.035,4.737-2.035c0.778,0,1.495,0.144,2.151,0.432c0.732,0.318,1.282,0.78,1.647,1.387h0.046v-1.375h3.891
			v12.925H364.845z M363.918,107.492c-0.618-0.622-1.399-0.933-2.346-0.933c-0.938,0-1.713,0.326-2.323,0.978
			c-0.595,0.629-0.893,1.414-0.893,2.353c0,0.902,0.31,1.667,0.928,2.296c0.633,0.637,1.403,0.955,2.312,0.955
			c0.938,0,1.716-0.314,2.334-0.943c0.61-0.629,0.915-1.413,0.915-2.353C364.845,108.898,364.537,108.113,363.918,107.492z"/>
		<path fill="#E40000" d="M378.943,116.313h-3.719l-4.669-12.925h4.028l2.483,8.06h0.046l2.494-8.06h4.028L378.943,116.313z"/>
		<path fill="#E40000" d="M398.328,111.027h-9.749c0.244,1.629,1.259,2.444,3.044,2.444c0.931,0,1.72-0.402,2.368-1.205h3.982
			c-0.58,1.341-1.411,2.41-2.494,3.206c-1.152,0.841-2.438,1.262-3.856,1.262c-1.899,0-3.521-0.67-4.863-2.012
			c-1.351-1.334-2.025-2.944-2.025-4.832c0-1.895,0.659-3.52,1.979-4.877c1.335-1.379,2.948-2.069,4.84-2.069
			c1.969,0,3.612,0.69,4.933,2.069c1.289,1.357,1.934,3.02,1.934,4.991C398.419,110.375,398.389,110.717,398.328,111.027z
			 M394.529,108.424c-0.32-1.478-1.305-2.217-2.952-2.217s-2.632,0.739-2.952,2.217H394.529z"/>
		<path fill="#E40000" d="M400.572,116.313V99.08h3.891v17.234H400.572z"/>
		<path fill="#E40000" d="M431.089,116.313h-3.891l-2.598-11.152h-0.046l-2.608,11.152h-4.005l-4.475-17.234h4.497l2.323,11.209
			h0.046l2.552-11.209h3.398l2.506,11.254h0.046l2.368-11.254h4.486L431.089,116.313z"/>
		<path fill="#E40000" d="M448.882,111.027h-9.749c0.244,1.629,1.259,2.444,3.044,2.444c0.931,0,1.72-0.402,2.368-1.205h3.982
			c-0.58,1.341-1.411,2.41-2.494,3.206c-1.152,0.841-2.438,1.262-3.856,1.262c-1.899,0-3.521-0.67-4.863-2.012
			c-1.351-1.334-2.025-2.944-2.025-4.832c0-1.895,0.659-3.52,1.979-4.877c1.335-1.379,2.948-2.069,4.84-2.069
			c1.969,0,3.612,0.69,4.933,2.069c1.289,1.357,1.934,3.02,1.934,4.991C448.974,110.375,448.944,110.717,448.882,111.027z
			 M445.083,108.424c-0.32-1.478-1.305-2.217-2.952-2.217s-2.632,0.739-2.952,2.217H445.083z"/>
		<path fill="#E40000" d="M463.427,114.722c-1.221,1.356-2.822,2.035-4.806,2.035c-0.74,0-1.442-0.144-2.105-0.432
			c-0.764-0.333-1.301-0.795-1.614-1.387h-0.046v1.375h-3.729V99.08h3.891v5.332c0.923-0.978,2.182-1.466,3.775-1.466
			c0.908,0,1.819,0.212,2.735,0.637c1.221,0.561,2.144,1.402,2.769,2.523c0.596,1.054,0.893,2.278,0.893,3.672
			C465.189,111.77,464.602,113.418,463.427,114.722z M460.383,107.538c-0.618-0.652-1.377-0.978-2.277-0.978
			c-0.915,0-1.686,0.315-2.312,0.944c-0.61,0.629-0.915,1.402-0.915,2.319c0,0.932,0.29,1.717,0.869,2.354
			c0.596,0.644,1.358,0.966,2.289,0.966s1.709-0.318,2.334-0.955c0.618-0.637,0.927-1.417,0.927-2.342
			C461.298,108.943,460.994,108.174,460.383,107.538z"/>
		<path fill="#E40000" d="M475.465,115.643c-1,0.743-2.213,1.114-3.64,1.114c-1.419,0-2.604-0.36-3.559-1.08
			c-1.015-0.765-1.595-1.834-1.739-3.206h3.868c0.114,0.796,0.606,1.193,1.476,1.193c0.336,0,0.637-0.083,0.904-0.25
			c0.305-0.189,0.458-0.443,0.458-0.762c0-0.401-0.206-0.731-0.618-0.989l-0.572-0.273l-2.254-0.807
			c-0.908-0.326-1.618-0.731-2.129-1.216c-0.648-0.606-0.973-1.326-0.973-2.16c0-1.281,0.526-2.327,1.579-3.138
			c0.969-0.75,2.125-1.125,3.468-1.125c1.365,0,2.49,0.337,3.375,1.012c0.954,0.72,1.491,1.743,1.614,3.069h-3.822
			c-0.023-0.652-0.428-0.978-1.213-0.978c-0.74,0-1.11,0.288-1.11,0.864c0,0.432,0.344,0.785,1.03,1.057
			c0.229,0.099,0.575,0.216,1.041,0.353c0.038,0.008,0.088,0.019,0.148,0.034l1.053,0.33c0.466,0.152,0.866,0.311,1.202,0.478
			c0.412,0.205,0.759,0.439,1.041,0.705c0.687,0.629,1.03,1.459,1.03,2.49C477.125,113.729,476.571,114.824,475.465,115.643z"/>
		<path fill="#E40000" d="M479.047,102.024V99.08h3.891v2.944H479.047z M479.047,116.313v-12.925h3.891v12.925H479.047z"/>
		<path fill="#E40000" d="M490.409,106.321v9.992h-3.891v-9.992h-1.922v-2.933h1.922V99.08h3.891v4.309h1.877v2.933H490.409z"/>
		<path fill="#E40000" d="M506.853,111.027h-9.749c0.244,1.629,1.259,2.444,3.044,2.444c0.931,0,1.72-0.402,2.368-1.205h3.982
			c-0.58,1.341-1.411,2.41-2.494,3.206c-1.152,0.841-2.438,1.262-3.856,1.262c-1.899,0-3.521-0.67-4.863-2.012
			c-1.351-1.334-2.025-2.944-2.025-4.832c0-1.895,0.659-3.52,1.979-4.877c1.335-1.379,2.948-2.069,4.84-2.069
			c1.969,0,3.612,0.69,4.933,2.069c1.289,1.357,1.934,3.02,1.934,4.991C506.945,110.375,506.915,110.717,506.853,111.027z
			 M503.054,108.424c-0.32-1.478-1.305-2.217-2.952-2.217s-2.632,0.739-2.952,2.217H503.054z"/>
	</g>
</g>
</svg>
