<?xml version="1.0" encoding="utf-8"?>
<!-- Generator: Adobe Illustrator 16.0.0, SVG Export Plug-In . SVG Version: 6.00 Build 0)  -->
<!DOCTYPE svg PUBLIC "-//W3C//DTD SVG 1.1//EN" "http://www.w3.org/Graphics/SVG/1.1/DTD/svg11.dtd">
<svg version="1.1" id="Layer_1" xmlns="http://www.w3.org/2000/svg" xmlns:xlink="http://www.w3.org/1999/xlink" x="0px" y="0px"
	 width="751px" height="210.596px" viewBox="0 0 751 210.596" enable-background="new 0 0 751 210.596" xml:space="preserve">
<g>
	<g>
		<rect x="332.225" y="149.428" fill="#FABE97" width="13.705" height="50.396"/>
		<rect x="356.956" y="149.428" fill="#FABE97" width="13.706" height="50.396"/>
		<path fill="#FABE97" d="M348.523,202.405c-0.183-3.603-4.353-6.482-9.474-6.482c-5.135,0-9.297,2.88-9.486,6.482H348.523z"/>
		<path fill="#FABE97" d="M373.254,202.405c-0.182-3.603-4.353-6.482-9.474-6.482c-5.133,0-9.298,2.88-9.479,6.482H373.254z"/>
		<g>
			<path fill="#EC1C24" d="M350.013,202.986c0,0.712-0.495,1.294-1.108,1.294h-19.247c-0.621,0-1.115-0.582-1.115-1.294l0,0
				c0-0.72,0.494-1.303,1.115-1.303h19.247C349.518,201.684,350.013,202.267,350.013,202.986L350.013,202.986z"/>
			<path fill="#EC1C24" d="M342.744,200.091c0-0.534-0.433-0.967-0.965-0.967l0,0c-0.537,0-0.97,0.433-0.97,0.967v2.47
				c0,0.534,0.433,0.967,0.97,0.967l0,0c0.533,0,0.965-0.433,0.965-0.967V200.091z"/>
			<path fill="#EC1C24" d="M345.949,197.973l-4.345,1.09c-0.519,0.133-0.833,0.655-0.701,1.174c0.125,0.518,0.651,0.831,1.17,0.702
				l5.447-1.366C347.107,198.984,346.575,198.448,345.949,197.973z"/>
			<path fill="#EC1C24" d="M331.686,198.339c0.121,0.105,0.258,0.186,0.42,0.227l9.472,2.373c0.514,0.129,1.04-0.185,1.171-0.702
				c0.132-0.519-0.18-1.041-0.701-1.174l-8.283-2.075C332.983,197.363,332.287,197.818,331.686,198.339z"/>
		</g>
		<g>
			<path fill="#EC1C24" d="M352.905,202.909c0,0.716,0.501,1.299,1.108,1.299h19.253c0.607,0,1.108-0.583,1.108-1.299l0,0
				c0-0.718-0.501-1.3-1.108-1.3h-19.253C353.406,201.609,352.905,202.191,352.905,202.909L352.905,202.909z"/>
			<path fill="#EC1C24" d="M360.173,200.02c0-0.535,0.433-0.966,0.971-0.966l0,0c0.533,0,0.965,0.431,0.965,0.966v2.466
				c0,0.535-0.432,0.969-0.965,0.969l0,0c-0.538,0-0.971-0.434-0.971-0.969V200.02z"/>
			<path fill="#EC1C24" d="M356.962,197.898l4.352,1.092c0.519,0.128,0.833,0.654,0.7,1.173c-0.124,0.519-0.651,0.834-1.17,0.706
				l-5.447-1.366C355.811,198.914,356.342,198.373,356.962,197.898z"/>
			<path fill="#EC1C24" d="M371.225,198.266c-0.113,0.107-0.251,0.187-0.414,0.223l-9.472,2.381
				c-0.521,0.128-1.046-0.188-1.17-0.706c-0.132-0.519,0.182-1.045,0.701-1.173l8.276-2.076
				C369.936,197.289,370.63,197.747,371.225,198.266z"/>
		</g>
		<g>
			<path fill="#FABE97" d="M373.078,126.945c0.607,0.834,1.528,0.564,2.317,0.073c0.282-0.171,0.551-0.423,0.801-0.703v0.545
				c-0.006,0.046-0.012,0.096-0.012,0.145v4.716c0,0.608,0.501,1.097,1.121,1.097c0.62,0,1.12-0.488,1.12-1.097v-4.677h0.207v4.677
				v1.431c0,0.602,0.5,1.092,1.115,1.092c0.626,0,1.126-0.49,1.126-1.092v-0.829v-5.278h0.207v5.278
				c0,0.604,0.502,1.093,1.122,1.093c0.62,0,1.121-0.489,1.121-1.093v-2.011v-3.268h0.206v3.268c0,0.603,0.502,1.091,1.121,1.091
				c0.62,0,1.121-0.488,1.121-1.091l-0.013-9.698c0-0.679-0.551-1.231-1.228-1.231h-0.151V93.463c0-0.488-0.392-0.884-0.88-0.884
				h-5.417c-0.488,0-0.882,0.396-0.882,0.884v25.926c-1.903,0.09-1.797,1.368-1.797,3.514
				C375.401,124.163,372.233,125.781,373.078,126.945z"/>
			<path fill="#FABE97" d="M329.733,126.945c-0.607,0.834-1.527,0.564-2.317,0.073c-0.282-0.171-0.55-0.423-0.794-0.703v0.545
				c0.006,0.046,0.006,0.096,0.006,0.145v4.716c0,0.608-0.501,1.097-1.114,1.097c-0.627,0-1.128-0.488-1.128-1.097v-4.677h-0.207
				v4.677v1.431c0,0.602-0.501,1.092-1.122,1.092c-0.619,0-1.119-0.49-1.119-1.092v-0.829v-5.278h-0.207v5.278
				c0,0.604-0.501,1.093-1.121,1.093c-0.62,0-1.121-0.489-1.121-1.093v-2.011v-3.268h-0.207v3.268c0,0.603-0.501,1.091-1.121,1.091
				c-0.62,0-1.12-0.488-1.12-1.091l0.005-9.698c0-0.679,0.558-1.231,1.233-1.231h0.15V93.463c0-0.488,0.394-0.884,0.882-0.884h5.416
				c0.489,0,0.884,0.396,0.884,0.884v25.926c1.903,0.09,1.796,1.368,1.796,3.514C327.41,124.163,330.578,125.781,329.733,126.945z"
				/>
		</g>
		<path fill="#EC1C24" d="M373.215,116.237c0,2.037-1.66,3.693-3.693,3.693h-36.234c-2.034,0-3.688-1.656-3.688-3.693V72.41
			c0-2.039,1.654-3.691,3.688-3.691h36.234c2.034,0,3.693,1.652,3.693,3.691V116.237z"/>
		<path fill="#EC1C24" d="M385.763,79.202v-5.121c0-3.207-2.604-5.815-5.817-5.815h-57.089c-3.21,0-5.81,2.608-5.81,5.815v5.121
			H385.763z"/>
		<path fill="#EEB590" d="M351.483,58.73h-0.156h-10.431c0,0,0,6.94,0,9.864c0,1.421,8.697,9.206,10.682,9.206
			c2.529,0,10.343-7.732,10.343-9.206c0-2.924,0-9.864,0-9.864H351.483z"/>
		<path fill="#FABE97" d="M376.433,33.399c-0.745,0.014,1.779-20.384-24.059-20.993v-0.018c-0.188,0.004-0.37,0.004-0.558,0.006
			c-0.138-0.002-0.27-0.002-0.407-0.002c-0.138,0-0.275,0-0.419,0.002c-0.182-0.002-0.363-0.002-0.551-0.006v0.018
			c-25.839,0.609-23.317,21.007-24.061,20.993c-2.292-0.038-4.109,3.08-1.859,7.035c1.741,3.06,3.668,1.743,3.668,1.743
			c0,22.242,21.338,23.919,23.223,24.005c1.877-0.086,23.215-1.763,23.215-24.005c0,0,1.929,1.316,3.669-1.743
			C380.542,36.479,378.725,33.361,376.433,33.399z"/>
		<g>
			<polygon fill="#B68266" points="353.481,47.869 349.331,47.869 350.808,35.229 351.42,35.302 350.024,47.258 353.481,47.258 			
				"/>
		</g>
		<g>
			<g>
				<g>
					<path fill="#352904" d="M342.918,39.29c0,1.176-0.951,2.126-2.122,2.126c-1.177,0-2.129-0.95-2.129-2.126
						c0-1.177,0.952-2.13,2.129-2.13C341.967,37.16,342.918,38.113,342.918,39.29z"/>
				</g>
				<g>
					<path fill="#FFFFFF" d="M342.143,38.727c0,0.435-0.351,0.785-0.791,0.785c-0.431,0-0.782-0.351-0.782-0.785
						s0.351-0.787,0.782-0.787C341.792,37.939,342.143,38.292,342.143,38.727z"/>
				</g>
			</g>
			<g>
				<g>
					<path fill="#352904" d="M364.143,39.29c0,1.176-0.952,2.126-2.129,2.126c-1.17,0-2.122-0.95-2.122-2.126
						c0-1.177,0.952-2.13,2.122-2.13C363.191,37.16,364.143,38.113,364.143,39.29z"/>
				</g>
				<g>
					<path fill="#FFFFFF" d="M363.368,38.727c0,0.435-0.351,0.785-0.789,0.785c-0.432,0-0.784-0.351-0.784-0.785
						s0.352-0.787,0.784-0.787C363.017,37.939,363.368,38.292,363.368,38.727z"/>
				</g>
			</g>
		</g>
		<g>
			<g>
				<g>
					<path fill="#F69D81" d="M344.496,50.872c0,1.858-1.827,3.364-4.076,3.364c-2.247,0-4.069-1.506-4.069-3.364
						c0-1.854,1.823-3.357,4.069-3.357C342.669,47.515,344.496,49.018,344.496,50.872z"/>
				</g>
				<g>
					<path fill="#F69D81" d="M366.46,50.872c0,1.858-1.822,3.364-4.07,3.364s-4.069-1.506-4.069-3.364
						c0-1.854,1.822-3.357,4.069-3.357S366.46,49.018,366.46,50.872z"/>
				</g>
			</g>
			<g>
				<g>
					<path fill="#7B1D03" d="M342.912,51.784c0.076,4.667,3.876,8.423,8.559,8.423c4.677,0,8.477-3.756,8.553-8.423H342.912z"/>
				</g>
				<g>
					<path fill="#D14027" d="M356.925,58.231c-1.478-1.232-3.375-1.973-5.454-1.973s-3.982,0.74-5.46,1.973
						c1.478,1.232,3.381,1.976,5.46,1.976S355.447,59.464,356.925,58.231z"/>
				</g>
				<g>
					<path fill="#FFFFFF" d="M359.647,54.152c0.226-0.751,0.364-1.542,0.377-2.368h-17.112c0.013,0.826,0.151,1.617,0.383,2.368
						H359.647z"/>
				</g>
			</g>
		</g>
		<path fill="#603813" d="M350.908,11.474c-15.108,0-20.124,8.51-20.124,8.51l0.012,0.006c-1.476,1.803-5.997,9.838-3.342,20.126
			c0,0,5.44,0.01,2.516-9.316c-0.024-0.09,0.063-0.178,0.1-0.264c13.443,3.106,26.785-2.988,34.374-6.562
			c2.642,2.722,8.91,4.597,8.301,6.825c-2.397,8.713,2.085,9.316,2.085,9.316C379.283,27.826,373.041,11.474,350.908,11.474z"/>
		<g>
			<path fill="#4B1600" d="M329.558,115.997v9.414c0,1.411,0.952,2.558,2.115,2.558h39.463c1.171,0,2.11-1.146,2.11-2.558v-9.414
				H329.558z"/>
			<g>
				<rect x="330.403" y="116.766" fill="#4B1600" width="17.004" height="41.751"/>
				<rect x="355.409" y="116.766" fill="#4B1600" width="16.999" height="41.751"/>
			</g>
		</g>
		<rect x="375.194" y="77.801" fill="#EC1C24" width="10.575" height="16.651"/>
		<rect x="317.042" y="77.801" fill="#EC1C24" width="10.575" height="16.651"/>
		<g>
			<path fill="#E1D8C4" d="M373.517,22.446V4.295c0-2.371-1.922-4.295-4.301-4.295h-35.576c-2.373,0-4.301,1.924-4.301,4.295v18.151
				H373.517z"/>
			<rect x="329.207" y="13.731" fill="#4B1600" width="44.31" height="8.616"/>
			<path fill="#E1D8C4" d="M382.833,24.716c0,2.172-1.766,3.941-3.945,3.941h-53.962c-2.173,0-3.939-1.77-3.939-3.941l0,0
				c0-2.176,1.766-3.941,3.939-3.941h53.962C381.067,20.774,382.833,22.54,382.833,24.716L382.833,24.716z"/>
		</g>
		<g>
			<polyline fill="none" stroke="#A8DDE7" stroke-width="1.6662" stroke-miterlimit="10" points="361.877,67.913 364.544,67.913 
				361.909,95.072 			"/>
			<polyline fill="none" stroke="#A8DDE7" stroke-width="1.6662" stroke-miterlimit="10" points="340.896,67.913 338.223,67.913 
				340.89,94.541 			"/>
		</g>
		<g>
			<g>
				<path fill="#0A3E54" d="M360.274,93.899c0,0.464-0.375,0.843-0.838,0.843h-4.377c-0.463,0-0.839-0.379-0.839-0.843v-1.229
					c0-0.467,0.376-0.843,0.839-0.843h4.377c0.463,0,0.838,0.376,0.838,0.843V93.899z"/>
				<path fill="#0A3E54" d="M363.643,107.472c0,1.335-1.082,2.422-2.417,2.422H340.29c-1.334,0-2.423-1.087-2.423-2.422V95.423
					c0-1.34,1.089-2.425,2.423-2.425h20.936c1.335,0,2.417,1.085,2.417,2.425V107.472z"/>
				<rect x="337.866" y="96.499" fill="#A8DDE7" width="25.776" height="9.896"/>
				<path fill="#FFFFFF" d="M361.013,101.448c0,3.429-2.787,6.215-6.217,6.215c-3.432,0-6.212-2.786-6.212-6.215
					c0-3.433,2.78-6.218,6.212-6.218C358.227,95.23,361.013,98.016,361.013,101.448z"/>
				<path fill="#E6E7E8" d="M359.974,101.448c0,2.856-2.316,5.177-5.177,5.177c-2.855,0-5.179-2.32-5.179-5.177
					s2.323-5.179,5.179-5.179C357.658,96.27,359.974,98.592,359.974,101.448z"/>
				<path fill="#88D3E0" d="M359.466,101.448c0,2.579-2.084,4.672-4.67,4.672c-2.581,0-4.672-2.093-4.672-4.672
					c0-2.582,2.091-4.673,4.672-4.673C357.382,96.775,359.466,98.866,359.466,101.448z"/>
				<path fill="#5BC8E0" d="M357.106,101.448c0,1.272-1.033,2.308-2.31,2.308c-1.278,0-2.304-1.035-2.304-2.308
					c0-1.278,1.026-2.306,2.304-2.306C356.073,99.143,357.106,100.17,357.106,101.448z"/>
				<path fill="#3D8A9C" d="M356.054,101.448c0,0.692-0.563,1.251-1.258,1.251c-0.696,0-1.252-0.559-1.252-1.251
					c0-0.698,0.556-1.261,1.252-1.261C355.491,100.188,356.054,100.75,356.054,101.448z"/>
				<path fill="#AADEE9" d="M357.626,98.964c0,0.875-1.264,1.581-2.83,1.581c-1.566,0-2.83-0.706-2.83-1.581s1.264-1.584,2.83-1.584
					C356.362,97.38,357.626,98.089,357.626,98.964z"/>
				<path fill="#80D1E5" d="M354.796,100.545c0.733,0,1.396-0.155,1.896-0.406c-0.413-0.602-1.108-0.996-1.896-0.996
					c-0.784,0-1.478,0.395-1.898,0.996C353.406,100.39,354.063,100.545,354.796,100.545z"/>
				<path fill="#49A1B5" d="M353.994,100.482c0.25,0.04,0.526,0.063,0.802,0.063c0.281,0,0.551-0.022,0.801-0.063
					c-0.213-0.184-0.494-0.295-0.801-0.295C354.489,100.188,354.208,100.299,353.994,100.482z"/>
			</g>
		</g>
		<g>
			<rect x="336.356" y="30.871" fill="#4B1600" width="29.015" height="2.611"/>
			<g>
				<path fill="#4B1600" d="M330.185,30.854v12.583c0,1.33,1.077,2.411,2.403,2.411h12.854c1.333,0,2.411-1.081,2.411-2.411V30.854
					H330.185z"/>
				<path fill="#4B1600" d="M353.875,30.854v12.583c0,1.33,1.077,2.411,2.411,2.411h12.854c1.333,0,2.404-1.081,2.404-2.411V30.854
					H353.875z"/>
				<path fill="#FFFFFF" d="M344.991,34.282c-0.295-0.621-0.933-1.056-1.666-1.056h-9.873c-1.021,0-1.854,0.832-1.854,1.853v6.661
					C333.495,38.426,337.371,34.377,344.991,34.282z"/>
				<path fill="#FFFFFF" d="M369.089,34.282c-0.3-0.621-0.933-1.056-1.671-1.056h-9.874c-1.02,0-1.853,0.832-1.853,1.853v6.661
					C357.595,38.426,361.47,34.377,369.089,34.282z"/>
			</g>
		</g>
	</g>
	<g>
		<g>
			<g>
				<rect x="403.313" y="146" fill="#5C0000" width="2.696" height="5.96"/>
				<rect x="423.089" y="146" fill="#5C0000" width="2.696" height="5.96"/>
			</g>
			<path fill="#EC1C24" d="M428.167,145.146c0,1.105-0.896,1.526-2.002,1.526h-23.237c-1.102,0-1.997-0.421-1.997-1.526l0,0
				c0-1.104,0.925-1.727,1.997-1.987c2.987-0.734,7.016-1.463,11.621-1.463c5.045,0,8.252,0.859,11.616,1.463
				C427.251,143.353,428.167,144.042,428.167,145.146L428.167,145.146z"/>
		</g>
		<path fill="#EE3E2B" d="M443.445,152.768c1.64,0.199,3.294,1.906,3.63,3.803c2.539,14.586,2.539,29.172,0,43.757
			c-0.336,1.89-1.99,3.603-3.63,3.799c-19.262,2.216-38.528,2.216-57.799,0c-1.638-0.196-3.288-1.909-3.628-3.799
			c-2.536-14.585-2.536-29.171,0-43.757c0.34-1.896,1.99-3.604,3.628-3.803C404.917,150.549,424.184,150.549,443.445,152.768z"/>
		<g>
			<polygon fill="#5C0000" points="397.943,205.226 390.901,204.654 390.901,152.229 397.943,151.637 			"/>
			<g>
				<path fill="#FFFFFF" d="M398.645,189.969h-8.45V184.9h8.45V189.969z M391.042,189.125h6.759v-3.379h-6.759V189.125z"/>
			</g>
		</g>
		<g>
			<polygon fill="#5C0000" points="431.243,205.216 438.284,204.654 438.284,152.215 431.243,151.637 			"/>
			<g>
				<path fill="#FFFFFF" d="M430.542,184.9h8.448v5.068h-8.448V184.9z M438.145,185.746h-6.759v3.379h6.759V185.746z"/>
			</g>
		</g>
		<g>
			<path fill="#5C0000" d="M447.524,159.32c-0.139-0.918-0.288-1.833-0.449-2.75c-0.336-1.896-1.99-3.604-3.63-3.803
				c-0.377-0.042-0.764-0.081-1.145-0.123c-0.576,0.742-0.922,1.671-0.922,2.684c0,2.416,1.958,4.37,4.374,4.37
				C446.384,159.698,446.981,159.563,447.524,159.32z"/>
			<path fill="#5C0000" d="M382.019,156.57c-0.154,0.917-0.306,1.832-0.445,2.75c0.542,0.243,1.14,0.378,1.774,0.378
				c2.412,0,4.37-1.954,4.37-4.37c0-1.013-0.344-1.941-0.926-2.684c-0.379,0.042-0.761,0.081-1.145,0.123
				C384.008,152.967,382.359,154.674,382.019,156.57z"/>
			<path fill="#5C0000" d="M447.524,197.573c-0.543-0.24-1.141-0.378-1.771-0.378c-2.416,0-4.374,1.958-4.374,4.374
				c0,1.009,0.346,1.94,0.922,2.683c0.381-0.047,0.768-0.08,1.145-0.126c1.64-0.196,3.294-1.909,3.63-3.799
				C447.236,199.408,447.386,198.49,447.524,197.573z"/>
			<path fill="#5C0000" d="M383.348,197.195c-0.634,0-1.232,0.138-1.774,0.378c0.139,0.917,0.291,1.835,0.445,2.754
				c0.34,1.89,1.99,3.603,3.628,3.799c0.383,0.046,0.765,0.079,1.145,0.126c0.582-0.742,0.926-1.674,0.926-2.683
				C387.717,199.153,385.76,197.195,383.348,197.195z"/>
		</g>
	</g>
</g>
<g>
	<g>
		<path fill="#232323" d="M5.239,103.786V57.289h19.516c2.096,0,4.028,0.437,5.796,1.31c1.768,0.874,3.285,2.02,4.551,3.438
			c1.266,1.419,2.26,3.034,2.98,4.846c0.72,1.813,1.081,3.657,1.081,5.534c0,1.965-0.339,3.854-1.015,5.665
			c-0.677,1.812-1.627,3.428-2.849,4.846c-1.223,1.419-2.696,2.554-4.42,3.405c-1.726,0.852-3.635,1.277-5.73,1.277H12.574v16.176
			H5.239z M12.574,81.127h12.116c1.048,0,1.998-0.218,2.849-0.655c0.852-0.436,1.582-1.048,2.194-1.833
			c0.611-0.786,1.091-1.703,1.441-2.751c0.349-1.048,0.524-2.204,0.524-3.471c0-1.31-0.196-2.489-0.589-3.537
			s-0.939-1.953-1.637-2.718c-0.699-0.763-1.496-1.353-2.39-1.768c-0.896-0.415-1.824-0.622-2.784-0.622H12.574V81.127z"/>
		<path fill="#232323" d="M48.789,57.289l12.836,23.313l12.967-23.313h8.055L65.292,87.151v16.635h-7.335V87.021L40.734,57.289
			H48.789z"/>
		<path fill="#232323" d="M122.53,63.772h-15.455v40.014h-7.4V63.772H84.153v-6.483h38.376V63.772z"/>
		<path fill="#232323" d="M166.932,57.289v46.497h-7.4V83.288h-23.445v20.498h-7.334V57.289h7.334v19.45h23.445v-19.45H166.932z"/>
		<path fill="#232323" d="M196.729,104.113c-3.318,0-6.342-0.665-9.07-1.997c-2.729-1.331-5.076-3.1-7.04-5.305
			c-1.965-2.204-3.482-4.726-4.552-7.564c-1.07-2.837-1.604-5.74-1.604-8.71c0-3.1,0.567-6.067,1.703-8.906
			c1.135-2.838,2.695-5.348,4.683-7.531c1.986-2.183,4.344-3.918,7.073-5.206c2.728-1.288,5.708-1.933,8.939-1.933
			c3.317,0,6.341,0.688,9.07,2.063c2.728,1.375,5.064,3.176,7.007,5.402c1.942,2.227,3.448,4.748,4.519,7.564
			c1.069,2.815,1.604,5.688,1.604,8.611c0,3.101-0.557,6.069-1.67,8.907s-2.675,5.337-4.682,7.498
			c-2.009,2.161-4.378,3.887-7.106,5.174C202.874,103.47,199.916,104.113,196.729,104.113z M181.928,80.537
			c0,2.184,0.349,4.301,1.048,6.353c0.698,2.053,1.691,3.864,2.98,5.436c1.287,1.572,2.849,2.827,4.682,3.766
			c1.834,0.939,3.886,1.408,6.156,1.408c2.357,0,4.442-0.491,6.254-1.474c1.811-0.982,3.35-2.28,4.617-3.896
			c1.266-1.614,2.227-3.427,2.882-5.436c0.655-2.008,0.982-4.061,0.982-6.156c0-2.227-0.35-4.354-1.048-6.385
			c-0.699-2.03-1.692-3.82-2.979-5.37c-1.289-1.55-2.838-2.794-4.65-3.733c-1.812-0.938-3.831-1.407-6.058-1.407
			c-2.357,0-4.453,0.491-6.287,1.473c-1.833,0.982-3.384,2.26-4.649,3.831c-1.267,1.572-2.238,3.373-2.915,5.403
			C182.266,76.379,181.928,78.441,181.928,80.537z"/>
		<path fill="#232323" d="M233.992,71.041v32.745h-7.334V57.289h5.763l26.588,33.53V57.354h7.4v46.432h-6.09L233.992,71.041z"/>
	</g>
</g>
<g>
	<g>
		<path fill="#232323" d="M148.186,150.091l14.015,37.263l13.949-37.263h7.793l-18.599,46.497h-6.287l-18.665-46.497H148.186z"/>
		<path fill="#232323" d="M209.025,190.301c2.444,0,4.475-0.479,6.09-1.44c1.615-0.96,2.915-2.216,3.897-3.766
			c0.982-1.55,1.68-3.317,2.095-5.305c0.415-1.986,0.623-4.027,0.623-6.123v-23.576h7.4v23.576c0,3.188-0.371,6.188-1.113,9.005
			c-0.743,2.815-1.921,5.282-3.536,7.399c-1.616,2.118-3.7,3.788-6.254,5.011s-5.622,1.833-9.201,1.833
			c-3.711,0-6.844-0.644-9.398-1.932c-2.554-1.287-4.617-3.013-6.188-5.174s-2.708-4.639-3.405-7.433
			c-0.699-2.794-1.048-5.698-1.048-8.71v-23.576h7.334v23.576c0,2.14,0.207,4.202,0.622,6.188c0.415,1.987,1.113,3.755,2.096,5.305
			s2.292,2.794,3.93,3.732C204.605,189.832,206.624,190.301,209.025,190.301z"/>
		<path fill="#232323" d="M270.782,190.104v6.483h-31.893v-46.497h31.304v6.483h-23.969v13.229h20.76v6.091h-20.76v14.211H270.782z"
			/>
	</g>
</g>
<g>
	<path fill="#232323" d="M513.303,113.63V67.133h4.585v42.437h26.851v4.061H513.303z"/>
	<path fill="#232323" d="M567.463,109.831c2.925,0,5.359-0.557,7.302-1.67s3.493-2.575,4.65-4.388
		c1.156-1.811,1.965-3.874,2.423-6.188c0.458-2.313,0.688-4.649,0.688-7.008V67.133h4.584v23.444c0,3.144-0.35,6.124-1.048,8.939
		c-0.698,2.816-1.823,5.295-3.372,7.434c-1.551,2.14-3.569,3.842-6.058,5.108c-2.489,1.267-5.524,1.898-9.104,1.898
		c-3.667,0-6.757-0.665-9.267-1.997c-2.511-1.331-4.53-3.088-6.058-5.271c-1.529-2.183-2.62-4.672-3.274-7.466
		c-0.655-2.794-0.982-5.676-0.982-8.646V67.133h4.519v23.444c0,2.446,0.239,4.825,0.721,7.139c0.479,2.314,1.298,4.366,2.456,6.156
		c1.156,1.791,2.694,3.231,4.616,4.322C562.18,109.286,564.581,109.831,567.463,109.831z"/>
	<path fill="#232323" d="M597.718,67.133l15.259,20.302l15.26-20.302h5.042L615.4,90.709l17.354,22.921h-5.043l-14.735-19.646
		l-14.734,19.646h-5.174l17.354-22.921l-17.879-23.576H597.718z"/>
</g>
<g>
	<path fill="#232323" d="M546.31,155.603h-16.568v42.438h-4.585v-42.438h-16.568v-4.06h37.722V155.603z"/>
	<path fill="#232323" d="M553.25,198.04v-46.497h19.647c2.008,0,3.853,0.426,5.533,1.276c1.681,0.852,3.133,1.965,4.355,3.34
		c1.222,1.376,2.171,2.938,2.849,4.683c0.677,1.747,1.016,3.516,1.016,5.305c0,1.703-0.252,3.33-0.754,4.879
		c-0.502,1.551-1.201,2.947-2.096,4.191s-1.976,2.292-3.241,3.144c-1.267,0.852-2.686,1.431-4.257,1.735l11.396,17.944h-5.174
		l-10.937-17.158h-13.753v17.158H553.25z M557.835,176.821h15.193c1.353,0,2.587-0.295,3.7-0.884
		c1.113-0.59,2.063-1.386,2.849-2.391c0.786-1.004,1.396-2.139,1.834-3.405c0.436-1.266,0.654-2.597,0.654-3.995
		c0-1.396-0.251-2.739-0.753-4.027c-0.502-1.287-1.179-2.412-2.03-3.373c-0.852-0.96-1.856-1.724-3.013-2.292
		c-1.157-0.566-2.368-0.852-3.634-0.852h-14.801V176.821z"/>
	<path fill="#232323" d="M609.703,151.543h3.863l19.32,46.497h-4.847l-6.025-14.539h-20.891l-5.96,14.539h-4.911L609.703,151.543z
		 M620.967,179.899l-9.364-22.986l-9.496,22.986H620.967z"/>
	<path fill="#232323" d="M635.375,151.543l16.635,40.8l16.568-40.8h4.781l-19.385,46.497h-3.995l-19.385-46.497H635.375z"/>
	<path fill="#232323" d="M711.277,193.979v4.061h-31.239v-46.497h30.649v4.06h-26.064v16.766h22.725v3.864h-22.725v17.747H711.277z"
		/>
	<path fill="#232323" d="M719.921,198.04v-46.497h4.585v42.437h26.851v4.061H719.921z"/>
</g>
<line fill="none" stroke="#232323" stroke-width="3" stroke-miterlimit="10" x1="473" y1="55.996" x2="473" y2="210.596"/>
</svg>
